<svg viewBox="0 0 646.2 67.7" xmlns="http://www.w3.org/2000/svg" xmlns:xlink="http://www.w3.org/1999/xlink" id="Calque_1" overflow="hidden"><defs></defs><path d="M20.9 34.7 20.9 45.1C20.9 46.8 21.2 48.1 21.8 48.7 22.4 49.4 23.6 49.7 25.5 49.7L26.3 49.7 26.3 52.8 5.8 52.8 5.8 49.7 6.4 49.7C8.3 49.7 9.5 49.3 10.1 48.6 10.7 47.9 11 46.7 11 45L11 22.3C11 20.6 10.7 19.3 10.1 18.7 9.5 18 8.3 17.7 6.4 17.7L5.7 17.7 5.7 14.6 37.7 14.6 38 24.7 34.8 24.7C34.3 23 33.7 21.6 33 20.5 32.3 19.4 31.5 18.7 30.7 18.4 29.9 18.1 28.7 17.9 27.1 17.9L20.9 17.9 20.9 31.1 23.9 31.1C25.3 31.1 26.3 30.8 26.9 30.2 27.5 29.6 27.8 28.3 27.9 26.4L31.1 26.4 31.1 39.5 27.9 39.5C27.9 37.5 27.5 36.1 26.9 35.5 26.3 34.9 25.3 34.5 23.8 34.5L20.8 34.5 20.8 34.7Z" stroke-width="0" fill="#FFFFFF"/><path d="M67.3 36 67.3 45C67.3 46.7 67.6 48 68.2 48.6 68.8 49.3 70 49.6 71.9 49.6L72.6 49.6 72.6 52.7 52 52.7 52 49.6 52.8 49.6C54.7 49.6 56 49.3 56.5 48.5 57.1 47.8 57.4 46.6 57.4 44.9L57.4 22.3C57.4 20.6 57.1 19.3 56.5 18.6 55.9 17.9 54.7 17.6 52.8 17.6L52 17.6 52 14.5 70.7 14.5C74.1 14.5 76.6 14.6 78.1 14.8 79.7 15 81.2 15.6 82.7 16.4 84.2 17.3 85.4 18.4 86.3 19.9 87.2 21.4 87.6 23 87.6 24.7 87.6 29.2 85 32.4 79.9 34 81.3 34.9 83.4 37.6 86.3 42.1 88.6 45.6 90.2 47.7 91.1 48.5 92.1 49.2 93.1 49.6 94.3 49.6L94.3 52.7 82.4 52.7C81.3 51.4 79.3 48.1 76.3 42.8 74.8 40.1 73.8 38.4 73.2 37.6 72.6 36.8 72 36.3 71.4 36.1 70.8 35.9 69.4 35.8 67.3 35.8M67.3 32.6C70.5 32.6 72.6 32.4 73.7 32 74.8 31.6 75.7 30.8 76.3 29.7 76.9 28.6 77.3 27.1 77.3 25.2 77.3 22.5 76.7 20.7 75.4 19.6 74.1 18.5 71.9 18.1 68.8 18.1 65.7 18.1 67.9 18.1 67.3 18.1L67.3 32.5 67.3 32.5Z" stroke-width="0" fill="#FFFFFF"/><path d="M123.6 34.6 123.6 44C123.6 45.8 123.6 47 123.9 47.5 124.1 48.1 124.7 48.5 125.6 48.9 126.5 49.3 127.9 49.5 129.7 49.5 131.5 49.5 134 49.2 135.2 48.6 136.4 48 137.4 46.9 138.4 45.3 139.3 43.7 140 42.1 140.4 40.3L143.6 40.3 143.3 52.8 108.4 52.8 108.4 49.7 109.1 49.7C111 49.7 112.2 49.3 112.8 48.6 113.4 47.9 113.7 46.7 113.7 45L113.7 22.3C113.7 20.6 113.4 19.3 112.8 18.7 112.2 18 111 17.7 109.1 17.7L108.4 17.7 108.4 14.6 141 14.6 141.6 24.5 138.4 24.5C137.8 22.8 137.2 21.4 136.5 20.4 135.8 19.4 135.1 18.7 134.4 18.4 133.7 18.1 132.5 18 130.8 18L123.7 18 123.7 31.2 127.3 31.2C129 31.2 130.1 30.9 130.7 30.2 131.3 29.6 131.6 28.3 131.6 26.4L134.8 26.4 134.8 39.4 131.6 39.4 131.6 38.9C131.6 37.8 131.4 36.8 130.9 35.9 130.4 35 129.3 34.6 127.4 34.6L123.6 34.6Z" stroke-width="0" fill="#FFFFFF"/><path d="M168.8 25.6 168.8 43.2C168.8 46 169.3 47.8 170.3 48.6 171.3 49.4 172.6 49.8 174.2 49.8L174.2 52.9 159.9 52.9 159.9 49.8C161.1 49.8 162.2 49.5 163.1 48.9 164 48.3 164.6 47.6 164.8 46.8 165 46 165.2 44.8 165.2 43.1L165.2 23.6C165.2 19.7 163.4 17.8 159.7 17.8L159.7 14.7 172.6 14.7 193.5 38.1 193.5 24.1C193.5 19.9 191.7 17.8 188.2 17.8L188.2 14.7 201.9 14.7 201.9 17.8C200.9 17.8 200 18.1 199.2 18.6 198.4 19.1 197.8 19.8 197.5 20.6 197.2 21.4 197.1 22.6 197.1 24.2L197.1 53.5 193.5 53.5 168.7 25.5 168.8 25.5Z" stroke-width="0" fill="#FFFFFF"/><path d="M255.9 38.2 255.9 52.5 252.8 52.5C252.4 51 251.9 49.8 251.2 48.8 248 52 243.8 53.6 238.6 53.6 233.4 53.6 227.9 51.7 224.4 47.8 220.8 43.9 219.1 39.3 219.1 34 219.1 28.7 220.9 24.1 224.4 20 227.9 15.9 232.8 13.9 239 13.9 245.2 13.9 247.6 15.4 250.8 18.5 251.2 17.5 251.6 16.4 252 15.1L255.1 15.1 255.5 29.2 252.4 29.2C251.5 25.4 250 22.5 247.9 20.5 245.8 18.5 243.3 17.6 240.4 17.6 237.5 17.6 234.6 18.9 232.9 21.5 231.2 24.1 230.4 28.1 230.4 33.6 230.4 39.1 230.7 40.5 231.3 42.8 231.9 45.1 233.1 46.8 234.9 48 236.7 49.2 238.6 49.8 240.7 49.8 242.8 49.8 246 48.8 248.1 46.9 250.3 45 251.8 42 252.8 38.1L255.9 38.1Z" stroke-width="0" fill="#FFFFFF"/><path d="M289.1 34.6 289.1 45.1C289.1 46.9 289.4 48.1 290 48.8 290.6 49.5 292 49.8 294 49.8L294 52.9 274.1 52.9 274.1 49.8C276.1 49.8 277.4 49.5 278.1 48.9 278.8 48.3 279.1 47 279.1 45.2L279.1 22.6C279.1 20.8 278.8 19.6 278.2 18.9 277.6 18.2 276.2 17.9 274.1 17.9L274.1 14.8 294 14.8 294 17.9C292 17.9 290.7 18.2 290 18.9 289.4 19.6 289 20.8 289 22.6L289 31.2 304.7 31.2 304.7 22.6C304.7 20.8 304.4 19.6 303.8 18.9 303.2 18.2 301.9 17.9 299.9 17.9L299.9 14.8 319.8 14.8 319.8 17.9C317.8 17.9 316.4 18.2 315.8 18.8 315.1 19.4 314.8 20.7 314.8 22.6L314.8 45.2C314.8 47 315.1 48.3 315.8 48.9 316.4 49.5 317.8 49.9 319.9 49.9L319.9 53 300 53 300 49.9C302 49.9 303.3 49.6 303.9 48.9 304.5 48.2 304.8 47 304.8 45.2L304.8 34.7 289.1 34.7Z" stroke-width="0" fill="#FFFFFF"/><path d="M387.2 32.6C391 33.3 393.8 34.5 395.7 36.2 397.6 37.9 398.5 40.2 398.5 42.9 398.5 45.6 397.3 48.4 394.9 50.2 392.5 52 388.5 52.9 382.9 52.9L362.9 52.9 362.9 49.8C364.9 49.8 366.2 49.5 366.9 48.9 367.6 48.3 367.9 47 367.9 45.2L367.9 22.8C367.9 21 367.6 19.8 367 19.1 366.4 18.4 365 18.1 362.9 18.1L362.9 15 377.6 14.6 379.7 14.6C386.3 14.6 390.8 15.4 393.2 17.1 395.6 18.7 396.8 21 396.8 23.8 396.8 26.6 396 27.8 394.4 29.2 392.8 30.7 390.4 31.8 387.2 32.7M377.8 30.9 379.7 30.9C381.8 30.9 383.3 30.4 384.3 29.4 385.3 28.4 385.8 26.8 385.8 24.4 385.8 22 385.5 21.2 384.8 20.2 384.2 19.2 383.3 18.5 382.3 18.2 381.3 17.9 379.7 17.7 377.7 17.7L377.7 30.9 377.8 30.9ZM377.8 34.4 377.8 45.2C377.8 46.3 377.9 47.1 378.1 47.6 378.3 48.1 378.7 48.6 379.4 49 380 49.4 380.9 49.6 382.1 49.6 383.9 49.6 385.2 49 386.1 47.7 387 46.4 387.4 44.6 387.4 42 387.4 39.4 387.1 38.4 386.5 37.3 385.9 36.2 385.1 35.4 384.1 35 383.1 34.6 381.6 34.4 379.6 34.4L377.8 34.4Z" stroke-width="0" fill="#FFFFFF"/><path d="M450.2 40.2 450 52.9 415.2 52.9 415.2 49.8 415.8 49.8C417.7 49.8 419 49.4 419.5 48.7 420.1 48 420.4 46.8 420.4 45.1L420.4 22.5C420.4 20.8 420.1 19.5 419.5 18.8 418.9 18.1 417.7 17.8 415.8 17.8L415.2 17.8 415.2 14.7 435.7 14.7 435.7 17.8 434.9 17.8C433 17.8 431.7 18.2 431.2 18.9 430.6 19.6 430.3 20.8 430.3 22.5L430.3 44.3C430.3 45.9 430.3 47 430.6 47.5 430.8 48 431.3 48.5 432.1 48.9 432.9 49.3 434.3 49.5 436.3 49.5 439.6 49.5 442.1 48.7 443.8 47 445.5 45.3 446.6 43.1 447.2 40.2 447.2 40.2 450.2 40.2 450.2 40.2Z" stroke-width="0" fill="#FFFFFF"/><path d="M465.6 33.7C465.6 30.3 466.6 26.9 468.5 23.6 470.4 20.3 473 17.9 476.3 16.3 479.6 14.7 483.1 13.9 486.8 13.9 493.5 13.9 498.8 15.8 502.6 19.7 506.4 23.6 508.3 28.3 508.3 34 508.3 39.7 506.4 44 502.6 47.8 498.8 51.6 493.6 53.6 487 53.6 480.4 53.6 478.5 52.7 475.1 50.8 471.6 48.9 469.2 46.3 467.7 43.1 466.2 39.9 465.5 36.7 465.5 33.6M477.3 33.4C477.3 39.3 478.1 43.5 479.7 46.1 481.3 48.7 483.6 50 486.7 50 489.8 50 492.4 48.8 494.1 46.4 495.8 44 496.6 39.9 496.6 33.9 496.6 27.9 495.8 24.4 494.3 21.7 492.8 19 490.3 17.7 486.9 17.7 483.5 17.7 481.3 19 479.7 21.4 478.1 23.9 477.3 27.9 477.3 33.3" stroke-width="0" fill="#FFFFFF"/><path d="M526.5 33.7C526.5 30.3 527.5 26.9 529.4 23.6 531.3 20.3 533.9 17.9 537.2 16.3 540.5 14.7 544 13.9 547.7 13.9 554.4 13.9 559.7 15.8 563.5 19.7 567.3 23.6 569.2 28.3 569.2 34 569.2 39.7 567.3 44 563.5 47.8 559.7 51.6 554.5 53.6 547.9 53.6 541.3 53.6 539.4 52.7 536 50.8 532.5 48.9 530.1 46.3 528.6 43.1 527.1 39.9 526.4 36.7 526.4 33.6M538.3 33.4C538.3 39.3 539.1 43.5 540.7 46.1 542.3 48.7 544.6 50 547.7 50 550.8 50 553.4 48.8 555.1 46.4 556.8 44 557.6 39.9 557.6 33.9 557.6 27.9 556.8 24.4 555.3 21.7 553.8 19 551.3 17.7 547.9 17.7 544.5 17.7 542.3 19 540.7 21.4 539.1 23.9 538.3 27.9 538.3 33.3" stroke-width="0" fill="#FFFFFF"/><path d="M608.7 52.9 594.5 23.1 594.5 42.9C594.5 44.7 594.5 46 594.9 46.8 595.3 47.6 595.7 48.3 596.6 48.9 597.5 49.5 598.6 49.8 599.9 49.8L599.9 52.9 586.1 52.9 586.1 49.8C587.3 49.8 588.3 49.5 589.2 48.9 590.1 48.3 590.6 47.5 590.8 46.7 591 45.9 591.1 44.6 591.1 42.8L591.1 22.7C591.1 20.8 590.8 19.5 590.1 18.9 589.4 18.2 588.1 17.9 586.1 17.9L586.1 14.8 601.4 14.8 613.2 39.9 625.1 14.8 640.5 14.8 640.5 17.9 639.7 17.9C637.8 17.9 636.5 18.2 636 19 635.4 19.7 635.1 20.9 635.1 22.6L635.1 45.2C635.1 46.9 635.4 48.2 636 48.9 636.6 49.6 637.8 49.9 639.7 49.9L640.6 49.9 640.6 53 619.8 53 619.8 49.9 620.6 49.9C622.5 49.9 623.7 49.5 624.3 48.8 624.9 48.1 625.2 46.9 625.2 45.2L625.2 22.7 611.1 53 608.7 53Z" stroke-width="0" fill="#FFFFFF"/></svg>